# xmcd
# Copyright (C) 1995-1998 Ti Kan
#
# Track frame offsets:
#       150
#       7490
#       14544
#       24693
#       36427
#       47810
#       52333
#       76489
#       94212
#       101135
#       116126
#
# Disc length: 1990 seconds
#
# Revision: 0
# Processed by: cddbd v1.5.2PL0 Copyright (c) Steve Scherf et al.
# Submitted via: CD-Import v1.0
#
DISCID=a107c40b
DTITLE=Eddio Vedder - Into The Wild
DYEAR=2008
DGENRE=
TTITLE0=Setting Forth
TTITLE1=No Celling
TTITLE2=Far Behind
TTITLE3=Rise
TTITLE4=Long Nights
TTITLE5=Tuolumne
TTITLE6=Hard Sun
TTITLE7=Society
TTITLE8=The Wolf
TTITLE9=End Of The Road
TTITLE10=Guaranteed
EXTD=
EXTT0=
EXTT1=
EXTT2=
EXTT3=
EXTT4=
EXTT5=
EXTT6=
EXTT7=
EXTT8=
EXTT9=
EXTT10=
PLAYORDER=
